<svg width="400" height="300" viewBox="0 0 400 300" fill="none" xmlns="http://www.w3.org/2000/svg">
  <rect width="400" height="300" fill="#0f172a"/>
  <rect x="20" y="20" width="360" height="260" rx="12" fill="#1e293b" stroke="#334155" stroke-width="2"/>

  <!-- Community Platform Interface -->
  <rect x="30" y="30" width="340" height="240" rx="8" fill="#0f172a"/>

  <!-- Header -->
  <rect x="40" y="40" width="320" height="40" rx="6" fill="#059669" opacity="0.1"/>
  <rect x="50" y="50" width="120" height="20" rx="3" fill="#10b981"/>
  <rect x="290" y="50" width="60" height="20" rx="3" fill="#059669"/>

  <!-- Sidebar Navigation -->
  <rect x="40" y="90" width="80" height="170" rx="4" fill="#1e293b" stroke="#334155" stroke-width="1"/>
  <rect x="50" y="100" width="60" height="8" rx="1" fill="#3b82f6"/>
  <rect x="50" y="115" width="60" height="8" rx="1" fill="#64748b"/>
  <rect x="50" y="130" width="60" height="8" rx="1" fill="#64748b"/>
  <rect x="50" y="145" width="60" height="8" rx="1" fill="#64748b"/>

  <!-- Main Content -->
  <rect x="130" y="90" width="230" height="170" rx="4" fill="#0f172a"/>

  <!-- Training Resources -->
  <rect x="140" y="100" width="100" height="60" rx="4" fill="#1e293b" stroke="#334155" stroke-width="1"/>
  <rect x="150" y="110" width="80" height="8" rx="1" fill="#3b82f6"/>
  <rect x="150" y="125" width="60" height="6" rx="1" fill="#64748b"/>

  <!-- Events -->
  <rect x="250" y="100" width="100" height="60" rx="4" fill="#1e293b" stroke="#334155" stroke-width="1"/>
  <rect x="260" y="110" width="80" height="8" rx="1" fill="#f59e0b"/>
  <rect x="260" y="125" width="60" height="6" rx="1" fill="#64748b"/>

  <!-- Problem Sets -->
  <rect x="140" y="170" width="210" height="40" rx="4" fill="#1e293b" stroke="#334155" stroke-width="1"/>
  <rect x="150" y="180" width="120" height="8" rx="1" fill="#ef4444"/>
  <rect x="150" y="195" width="90" height="6" rx="1" fill="#64748b"/>

  <!-- Community Stats -->
  <rect x="140" y="220" width="100" height="30" rx="4" fill="#059669" opacity="0.2"/>
  <rect x="250" y="220" width="100" height="30" rx="4" fill="#3b82f6" opacity="0.2"/>

  <!-- User Icons -->
  <circle cx="190" cy="235" r="8" fill="#10b981" opacity="0.6"/>
  <circle cx="300" cy="235" r="8" fill="#3b82f6" opacity="0.6"/>
</svg>