<svg width="400" height="300" viewBox="0 0 400 300" fill="none" xmlns="http://www.w3.org/2000/svg">
  <rect width="400" height="300" fill="#0f172a"/>
  <rect x="20" y="20" width="360" height="260" rx="12" fill="#1e293b" stroke="#334155" stroke-width="2"/>

  <!-- Browser Window -->
  <rect x="30" y="30" width="340" height="240" rx="8" fill="#0f172a"/>

  <!-- Browser Header -->
  <rect x="40" y="40" width="320" height="30" rx="6" fill="#1e293b"/>
  <circle cx="50" cy="55" r="4" fill="#ef4444"/>
  <circle cx="60" cy="55" r="4" fill="#f59e0b"/>
  <circle cx="70" cy="55" r="4" fill="#10b981"/>
  <rect x="80" y="50" width="200" height="10" rx="2" fill="#334155"/>

  <!-- Navigation Menu -->
  <rect x="40" y="80" width="320" height="8" rx="2" fill="#3b82f6"/>
  <rect x="50" y="95" width="40" height="6" rx="1" fill="#3b82f6"/>
  <rect x="100" y="95" width="50" height="6" rx="1" fill="#64748b"/>
  <rect x="160" y="95" width="60" height="6" rx="1" fill="#64748b"/>
  <rect x="230" y="95" width="50" height="6" rx="1" fill="#64748b"/>
  <rect x="290" y="95" width="60" height="6" rx="1" fill="#64748b"/>

  <!-- Hero Section -->
  <rect x="40" y="110" width="320" height="80" rx="4" fill="#1e293b" stroke="#334155" stroke-width="1"/>
  <rect x="60" y="130" width="150" height="12" rx="2" fill="#3b82f6"/>
  <rect x="60" y="150" width="200" height="8" rx="1" fill="#64748b"/>
  <rect x="60" y="165" width="180" height="8" rx="1" fill="#64748b"/>

  <!-- Action Buttons -->
  <rect x="60" y="200" width="80" height="24" rx="4" fill="#3b82f6"/>
  <rect x="150" y="200" width="80" height="24" rx="4" fill="#1e293b" stroke="#334155" stroke-width="1"/>

  <!-- Sections Preview -->
  <rect x="230" y="120" width="40" height="40" rx="4" fill="#64748b"/>
  <rect x="280" y="120" width="40" height="40" rx="4" fill="#64748b"/>
  <rect x="330" y="120" width="20" height="40" rx="4" fill="#64748b"/>
</svg>